<svg width="128" height="125" viewBox="0 0 128 125" fill="none" xmlns="http://www.w3.org/2000/svg">
<path d="M102.752 70.3958C103.987 69.4628 104.986 68.2661 105.673 66.8974C106.361 65.5287 106.718 64.0245 106.718 62.5C106.718 60.9755 106.361 59.4713 105.673 58.1026C104.986 56.734 103.987 55.5372 102.752 54.6042C86.7656 42.5241 68.9144 33.0025 49.8667 26.3959L46.384 25.1875C39.728 22.8802 32.6933 27.2761 31.792 33.9896C29.2741 52.917 29.2741 72.083 31.792 91.0104C32.6987 97.724 39.728 102.12 46.384 99.8125L49.8667 98.6042C68.9144 91.9975 86.7656 82.4759 102.752 70.3958Z" fill="#41B883"/>
</svg>
