<svg width="142" height="142" viewBox="0 0 142 142" fill="none" xmlns="http://www.w3.org/2000/svg">
<path d="M75.5203 66.7637C75.0296 65.994 74.409 65.3153 73.6862 64.7579C61.034 54.9695 46.9062 47.2545 31.8317 41.9019L29.0745 40.9256C23.927 39.0914 18.4837 42.5764 17.7914 47.8895C15.7979 63.232 15.7979 78.768 17.7914 94.1105C18.4896 99.4237 23.927 102.903 29.0745 101.08L31.8317 100.098C46.9041 94.745 61.0299 87.0301 73.6803 77.2421C74.4025 76.6841 75.023 76.0055 75.5144 75.2364C75.6593 81.549 76.1412 87.8493 76.9581 94.1105C77.6563 99.4237 83.0937 102.903 88.2412 101.08L90.9983 100.098C106.071 94.7449 120.197 87.03 132.847 77.2421C136.929 74.0826 136.929 67.9174 132.847 64.7579C120.196 54.9702 106.071 47.2552 90.9983 41.9019L88.2412 40.9256C83.0937 39.0914 77.6503 42.5764 76.9581 47.8895C76.1412 54.1507 75.6592 60.4511 75.5144 66.7637L75.5203 66.7637Z" fill="#AEDEFF"/>
</svg>
