<svg width="113" height="117" viewBox="0 0 113 117" fill="none" xmlns="http://www.w3.org/2000/svg">
<path d="M56.7966 10.0669C56.2019 9.78847 55.5382 9.7088 54.8978 9.83898C54.2573 9.96916 53.6719 10.3027 53.223 10.7933C52.7862 11.2628 52.4692 11.8375 52.3007 12.4657C52.1322 13.0938 52.1174 13.7555 52.2578 14.391C52.7239 16.536 52.9688 18.7785 52.9688 21.0698C52.9688 26.3153 51.6928 29.991 49.494 33.0379C47.2623 36.1335 44.0324 38.6539 39.9502 41.496C39.8859 41.5402 39.826 41.5908 39.7713 41.6472L39.2769 42.1639C34.1149 45.6121 30.0287 50.5354 27.5127 56.3381C24.9968 62.1407 24.159 68.574 25.1007 74.8593C26.0424 81.1447 28.7232 87.0128 32.8188 91.7535C36.9144 96.4942 42.2492 99.9043 48.1776 101.571C54.106 103.238 60.3739 103.09 66.2229 101.146C72.0718 99.201 77.2511 95.5429 81.134 90.614C85.0168 85.6852 87.4368 79.6968 88.1012 73.3735C88.7655 67.0503 87.6456 60.6632 84.8771 54.9852C84.7898 54.8061 84.6611 54.6521 84.5025 54.5368C84.3439 54.4216 84.1602 54.3487 83.9679 54.3245C83.7755 54.3004 83.5803 54.3259 83.3998 54.3986C83.2192 54.4713 83.0587 54.5891 82.9326 54.7414L81.9533 55.9163C77.8193 60.918 74.4811 64.9594 67.6399 66.7632C67.348 66.8363 67.1691 66.7827 67.042 66.6998C66.84 66.5514 66.6897 66.3393 66.6135 66.0953C66.4907 65.7576 66.4582 65.3918 66.5195 65.0365C66.5808 64.6813 66.7337 64.3498 66.9619 64.077C70.6203 59.9674 73.2193 54.3904 74.1469 46.4588C75.8889 31.5998 69.3679 15.7755 56.7966 10.0669Z" fill="#E35C70"/>
</svg>
