<svg width="109" height="109" viewBox="0 0 109 109" fill="none" xmlns="http://www.w3.org/2000/svg">
<path fill-rule="evenodd" clip-rule="evenodd" d="M55.5459 11.3668C31.724 10.7893 11.9444 29.6326 11.367 53.4545C10.7895 77.276 29.6327 97.0558 53.4545 97.6331C54.9882 97.6703 56.3748 97.2402 57.5338 96.3637C58.6584 95.513 59.4372 94.3431 59.9818 93.0919C61.05 90.6375 61.4097 87.4193 61.4279 84.1007C61.4933 72.103 72.0181 61.6835 83.8964 62.1331C87.1641 62.2571 90.3165 62.0823 92.7458 61.2811C93.9748 60.8756 95.1711 60.2611 96.0871 59.3032C97.0495 58.2968 97.5977 57.0165 97.6331 55.5455C98.2108 31.7238 79.3674 11.9442 55.5459 11.3668ZM40.3757 69.9539C37.886 70.2582 36.1145 72.5236 36.4189 75.0133C36.7235 77.5031 38.9886 79.2748 41.4784 78.97C43.9681 78.6657 45.7396 76.4003 45.4353 73.9106C45.1306 71.4209 42.8655 69.6496 40.3757 69.9539ZM25.1976 58.0838C24.8931 55.5941 26.6646 53.3287 29.1543 53.0244C31.6441 52.7196 33.9093 54.4913 34.2137 56.9811C34.5182 59.4708 32.7467 61.7358 30.2569 62.0405C27.7672 62.3448 25.5021 60.5735 25.1976 58.0838ZM35.9652 33.8893C33.4754 34.1938 31.7039 36.459 32.0084 38.9487C32.3129 41.4385 34.5781 43.21 37.0678 42.9055C39.5576 42.601 41.329 40.3358 41.0246 37.8461C40.7201 35.3563 38.4549 33.5848 35.9652 33.8893ZM71.2919 42.1516C70.9872 39.6619 72.7589 37.3967 75.2486 37.0923C77.7384 36.7877 80.0037 38.5593 80.308 41.049C80.6123 43.5387 78.8411 45.804 76.3513 46.1083C73.8616 46.4131 71.5962 44.6414 71.2919 42.1516ZM54.4664 49.4069C51.9767 49.7117 50.2049 51.9766 50.5097 54.4664C50.814 56.9561 53.0794 58.7278 55.5691 58.4231C58.0589 58.1188 59.8301 55.8534 59.5258 53.3636C59.2215 50.8739 56.9561 49.1027 54.4664 49.4069ZM51.7437 31.9596C51.4389 29.4699 53.2106 27.2047 55.7004 26.9003C58.1901 26.5957 60.455 28.3673 60.7598 30.857C61.0641 33.3467 59.2928 35.6119 56.8031 35.9164C54.3133 36.2209 52.048 34.4494 51.7437 31.9596Z" fill="#00ADB5"/>
</svg>
