<svg width="109" height="109" viewBox="0 0 109 109" fill="none" xmlns="http://www.w3.org/2000/svg">
<path d="M86.9624 23.8437H24.2304L18.8705 14.2362C18.2688 13.1578 17.1307 12.4895 15.8958 12.4895H9.08331C7.20211 12.4895 5.67706 14.0145 5.67706 15.8958C5.67706 17.777 7.20211 19.302 9.08331 19.302H13.8957L19.1853 28.7834L31.3846 55.7757L31.3971 55.8029L32.4716 58.1805L20.2234 71.245C19.3427 72.1847 19.067 73.5404 19.5109 74.7489C19.9548 75.9579 21.0423 76.8131 22.3216 76.9594L33.4856 78.2351C47.4499 79.8311 61.5505 79.8311 75.5143 78.2351L86.6786 76.9594C88.5475 76.7455 89.8895 75.0573 89.6761 73.188C89.4622 71.3191 87.774 69.977 85.9051 70.1909L74.7408 71.4667C61.2907 73.0036 47.7093 73.0036 34.2592 71.4667L29.8287 70.9603L38.8184 61.3715C38.9053 61.2784 38.9861 61.1821 39.0607 61.0826L42.4797 61.5277C47.271 62.1513 52.1138 62.2734 56.9302 61.8924C68.164 61.004 78.5754 55.6585 85.8443 47.0475L88.4694 43.9371C88.5579 43.8327 88.6397 43.723 88.7146 43.6087L93.6078 36.152C97.0758 30.8666 93.2844 23.8437 86.9624 23.8437Z" fill="#F0DB4F"/>
<path d="M29.5208 84.0208C25.7584 84.0208 22.7083 87.0709 22.7083 90.8333C22.7083 94.5956 25.7584 97.6458 29.5208 97.6458C33.2833 97.6458 36.3333 94.5956 36.3333 90.8333C36.3333 87.0709 33.2833 84.0208 29.5208 84.0208Z" fill="#F0DB4F"/>
<path d="M72.6667 90.8333C72.6667 87.0709 75.7169 84.0208 79.4792 84.0208C83.2415 84.0208 86.2917 87.0709 86.2917 90.8333C86.2917 94.5956 83.2415 97.6458 79.4792 97.6458C75.7169 97.6458 72.6667 94.5956 72.6667 90.8333Z" fill="#F0DB4F"/>
</svg>
