<svg width="109" height="109" viewBox="0 0 109 109" fill="none" xmlns="http://www.w3.org/2000/svg">
<path d="M66.3383 15.8958C66.9405 15.8958 67.5182 16.135 67.9442 16.5609L80.7899 29.4066C81.6764 30.2935 81.6764 31.7313 80.7899 32.6181L39.041 74.367C38.7557 74.6522 38.3996 74.8561 38.0092 74.9583L20.6217 79.5C19.8418 79.7034 19.0122 79.4786 18.4422 78.9086C17.8721 78.3387 17.647 77.5089 17.8507 76.7291L22.3924 59.3413C22.4944 58.9512 22.6985 58.5951 22.9838 58.3095L64.7324 16.5609C65.1584 16.135 65.7361 15.8958 66.3383 15.8958Z" fill="#D767FF"/>
<path d="M18.1667 87.427C16.2855 87.427 14.7604 88.9521 14.7604 90.8333C14.7604 92.7144 16.2855 94.2395 18.1667 94.2395H86.2917C88.1728 94.2395 89.6979 92.7144 89.6979 90.8333C89.6979 88.9521 88.1728 87.427 86.2917 87.427H18.1667Z" fill="#D767FF"/>
</svg>
