<svg width="549" height="111" viewBox="0 0 549 111" fill="none" xmlns="http://www.w3.org/2000/svg">
<path d="M548.027 84.7761V98.3389H536.63C524.469 97.9573 517.971 91.4014 517.971 79.0873V48.1114H510.014V36.2136H517.971V22.8936H534.789V36.0748H547.645V47.9379H534.789V77.4223C534.789 81.4114 535.588 84.6026 541.738 84.6026L548.027 84.7761Z" fill="#111111"/>
<path d="M442.987 67.3978V66.4959C442.805 62.5063 443.414 58.5201 444.778 54.7658C446.142 51.0115 448.235 47.5629 450.937 44.6176C453.639 41.6723 456.896 39.2882 460.523 37.6021C464.149 35.9159 468.074 34.9608 472.07 34.7915C472.87 34.7915 473.704 34.7915 474.503 34.7915C490.382 34.7915 504.316 44.0184 504.316 66.0102V70.6931H460.187C460.639 80.8218 466.129 86.5452 475.371 86.5452C483.328 86.5452 487.046 83.0765 488.123 78.0121H504.003C502.057 91.2281 491.494 98.5818 474.781 98.5818C456.434 98.4431 442.987 86.8574 442.987 67.3978ZM487.776 60.0787C487.185 50.8518 482.529 46.4118 474.433 46.4118C466.337 46.4118 461.681 51.4068 460.535 60.0787H487.776Z" fill="#111111"/>
<path d="M374.328 67.3978V66.4959C374.146 62.5119 374.752 58.5312 376.112 54.7812C377.471 51.0313 379.558 47.5856 382.253 44.6412C384.947 41.6968 388.197 39.3114 391.815 37.6214C395.434 35.9313 399.35 34.9697 403.341 34.7915C404.14 34.7915 404.974 34.7915 405.773 34.7915C421.653 34.7915 435.621 44.0184 435.621 66.0102V70.6931H391.527C391.979 80.8218 397.469 86.5452 406.712 86.5452C414.669 86.5452 418.387 83.0765 419.464 78.0121H435.343C433.362 91.2281 422.799 98.5818 406.086 98.5818C387.775 98.4431 374.328 86.8574 374.328 67.3978ZM419.116 60.0787C418.526 50.8518 413.869 46.4118 405.773 46.4118C397.677 46.4118 393.16 51.5456 391.875 60.044L419.116 60.0787Z" fill="#111111"/>
<path d="M277.975 36.0752H295.765L306.641 77.2146L318.559 36.0752H332.458L343.229 77.2146L354.696 36.0752H370.992L351.673 97.1946H334.994L324.57 58.8302L313.416 97.1946H296.529L277.975 36.0752Z" fill="#111111"/>
<path d="M221.442 77.9775H237.321C238.051 83.4928 240.796 86.6494 248.092 86.6494C254.625 86.6494 257.648 84.1866 257.648 79.9894C257.648 75.7922 254.173 74.0231 245.278 72.7744C228.982 70.3116 222.692 65.6288 222.692 53.6963C222.692 40.966 234.367 34.6528 247.015 34.6528C260.601 34.6528 270.852 39.5785 272.311 53.6269H256.64C256.54 52.5408 256.226 51.4853 255.715 50.5213C255.204 49.5574 254.506 48.704 253.663 48.0106C252.82 47.3171 251.847 46.7974 250.802 46.4813C249.756 46.1652 248.658 46.0591 247.571 46.1691H247.05C241.56 46.1691 238.363 48.736 238.363 52.4822C238.363 56.2285 241.317 57.8588 250.281 59.1422C265.501 61.4316 274.014 65.2819 274.014 78.3591C274.014 91.4363 264.389 98.4431 248.266 98.4431C232.144 98.4431 221.893 91.1935 221.442 77.9775Z" fill="#111111"/>
<path d="M153.963 36.0749H170.781V45.7527C172.676 42.2005 175.554 39.2662 179.071 37.2985C182.588 35.3309 186.597 34.4125 190.621 34.6527C202.539 34.6527 211.191 41.9024 211.191 58.4483V97.333H194.582V60.8764C194.582 52.5861 191.351 48.6318 183.846 48.6318C182.259 48.4939 180.661 48.6701 179.143 49.1504C177.625 49.6307 176.217 50.4055 175 51.4304C173.783 52.4553 172.781 53.7101 172.051 55.1228C171.321 56.5355 170.877 58.0782 170.746 59.6624C170.659 60.3998 170.659 61.1449 170.746 61.8824V97.1943H153.963V36.0749Z" fill="#111111"/>
<path d="M121.51 20.7082C121.449 19.0343 121.887 17.38 122.768 15.9547C123.65 14.5294 124.935 13.3973 126.461 12.7016C127.987 12.0059 129.686 11.7779 131.342 12.0466C132.998 12.3153 134.537 13.0685 135.765 14.2108C136.992 15.3532 137.852 16.8334 138.236 18.4639C138.62 20.0945 138.51 21.8021 137.922 23.3706C137.333 24.9392 136.291 26.298 134.928 27.2751C133.565 28.2523 131.943 28.8038 130.266 28.8598H129.953C128.912 28.9255 127.869 28.7855 126.882 28.4477C125.896 28.11 124.986 27.5811 124.205 26.8914C123.424 26.2017 122.786 25.3649 122.33 24.4288C121.873 23.4927 121.606 22.4759 121.544 21.4367C121.516 21.195 121.504 20.9515 121.51 20.7082ZM121.51 36.0748H138.501V97.1942H121.579L121.51 36.0748Z" fill="#111111"/>
<path d="M57.4713 13.667H111.19V28.4786H76.4431V50.5745H103.963V64.8311H76.4083V97.1945H57.4713V13.667Z" fill="#111111"/>
<path d="M25.0525 41.0006C25.0525 46.2384 25.0525 52.6209 17.8251 55.2225C25.2262 57.7547 25.0525 63.1312 25.0525 68.7506V89.5631C25.0525 93.5175 26.6508 95.9109 29.5001 96.5006C30.1261 96.7115 30.7857 96.8056 31.4459 96.7781H38.3953V110.653H26.9288C14.6979 110.653 7.95703 103.716 7.95703 90.8466V66.2184C7.87028 64.9541 7.31183 63.7681 6.39192 62.8947C5.47202 62.0213 4.25752 61.524 2.98823 61.5009H0V49.3256H2.98823C4.28285 49.3086 5.5212 48.7946 6.44636 47.8904C7.37153 46.9862 7.91249 45.7611 7.95703 44.4694V19.4944C7.95703 6.83344 14.5589 0 26.9288 0H38.4995V13.6669H31.5501C30.8892 13.6688 30.2326 13.7741 29.6043 13.9791C26.7551 14.7075 25.1567 17.0663 25.1567 20.9166L25.0525 41.0006Z" fill="#111111"/>
</svg>
